<?xml version="1.0" encoding="UTF-8"?>
<svg xmlns="http://www.w3.org/2000/svg" xmlns:xlink="http://www.w3.org/1999/xlink" width="1024px" height="768px" viewBox="0 0 1024 768" version="1.1">
<g id="surface1">
<path style=" stroke:none;fill-rule:nonzero;fill:rgb(76.862746%,7.450981%,12.54902%);fill-opacity:1;" d="M 816.582031 473.496094 C 754.183594 473.496094 742.8125 407.566406 742.8125 391.222656 L 788 391.222656 C 788 400.824219 795.117188 412.320312 801.113281 417 C 806.097656 420.488281 811.429688 422.058594 816.765625 421.609375 L 816.6875 421.609375 C 829.414062 421.609375 839.851562 415.96875 839.851562 402.457031 C 839.851562 385.992188 829.160156 382.34375 817.378906 379.273438 C 785.289062 370.800781 740.324219 360.960938 740.324219 295.320312 C 740.324219 234.097656 776.882812 202.945312 815.6875 202.945312 C 877.820312 202.945312 894.285156 265.894531 894.285156 284.113281 L 848.363281 284.113281 C 847.8125 274.71875 844.628906 266.492188 839.933594 262.320312 L 839.839844 262.246094 C 834.253906 257.0625 828.074219 254.308594 821.792969 254.207031 L 821.765625 254.207031 C 804.609375 254.207031 794.957031 260.734375 794.957031 275.113281 C 794.957031 286.847656 803.652344 292.679688 816.15625 296.59375 C 848.777344 306.839844 898.859375 310.390625 898.859375 382.96875 C 898.859375 419.832031 881.398438 473.449219 816.59375 473.449219 Z M 739.925781 241.296875 L 722.332031 276.289062 L 715.019531 276.289062 L 723.078125 238.128906 L 706.957031 238.128906 L 706.957031 187.246094 L 739.925781 187.246094 Z M 637.660156 209.0625 L 696.054688 209.0625 L 696.054688 466.175781 L 637.660156 466.175781 Z M 561.511719 466.679688 L 510.484375 466.679688 L 434.296875 209.542969 L 503.050781 209.542969 L 546.777344 365.832031 L 547.972656 370.535156 L 549.0625 365.832031 L 589.945312 209.542969 L 631.222656 209.542969 Z M 451.890625 359.855469 L 333.71875 359.855469 C 334.015625 376.402344 338.042969 392.011719 344.871094 403.066406 C 351.695312 414.125 360.730469 419.667969 369.875 418.414062 L 369.757812 418.441406 C 382.058594 419.558594 393.824219 409.277344 400.96875 391.175781 L 401.050781 390.984375 L 448.167969 390.984375 C 432.765625 455.710938 402.882812 474.097656 362.164062 474.097656 C 309.195312 474.097656 271.746094 421.65625 271.746094 338.566406 C 271.746094 249.839844 308.636719 203.015625 362.164062 203.015625 C 422.046875 203.015625 452.074219 273.984375 452.074219 342.289062 C 452.230469 348.3125 452.15625 354.351562 451.851562 360.359375 L 451.875 359.855469 Z M 270.75 466.273438 L 136.074219 466.273438 L 136.074219 209.761719 L 196.621094 209.761719 L 196.621094 396.480469 L 270.75 396.480469 Z M 960.644531 0 C 961.070312 1.609375 961.550781 3.167969 961.949219 4.824219 C 965.511719 19.390625 967.585938 36.40625 967.585938 54.289062 L 967.585938 55.367188 L 967.585938 55.320312 L 967.585938 56.617188 C 967.585938 74.710938 965.511719 91.921875 961.773438 107.519531 L 961.949219 106.679688 C 958.347656 121.894531 953.183594 135.746094 946.734375 147.503906 C 940.46875 158.871094 933.03125 167.917969 924.84375 174.144531 L 924.394531 174.457031 C 915.90625 180.855469 906.792969 184.128906 897.597656 184.078125 L 897.128906 184.078125 L 897.15625 184.078125 L 896.769531 184.078125 C 887.0625 184.078125 877.808594 180.550781 869.390625 174.144531 L 869.855469 174.457031 C 861.4375 168.210938 853.78125 159.054688 847.3125 147.503906 C 840.933594 136.003906 835.808594 122.441406 832.207031 107.519531 L 832.035156 106.679688 C 828.277344 90.863281 826.351562 73.824219 826.382812 56.617188 L 826.382812 55.246094 L 826.382812 55.320312 L 826.382812 54.289062 C 826.382812 36.40625 828.457031 19.414062 832.207031 4.03125 L 832.035156 4.824219 C 832.433594 3.167969 832.910156 1.609375 833.351562 0 L 0.0117188 0 L 98.542969 768 C 305.40625 524.734375 504.207031 758.519531 512.210938 767.425781 L 512.238281 767.425781 L 512.292969 767.351562 L 512.398438 767.351562 L 512.453125 767.398438 L 512.492188 767.425781 C 520.472656 758.496094 719.300781 524.734375 926.148438 768 L 1024.664062 0 Z M 361.03125 256.777344 L 360.808594 256.777344 C 345.765625 256.777344 333.570312 278.78125 333.570312 305.929688 L 333.597656 308.328125 L 333.597656 308.207031 L 390.796875 308.207031 C 391.300781 293.851562 388.261719 279.824219 382.488281 269.902344 C 376.71875 259.976562 368.808594 255.171875 360.886719 256.777344 L 361.007812 256.753906 Z M 855.769531 133.945312 C 866.417969 154.128906 881.183594 165.546875 896.625 165.527344 L 897.183594 165.527344 L 897.15625 165.527344 L 897.648438 165.527344 C 905.695312 165.527344 913.339844 162.433594 920.242188 156.863281 L 919.898438 157.128906 C 926.78125 151.660156 932.996094 143.796875 938.195312 133.992188 L 938.222656 133.945312 C 943.34375 124.175781 947.464844 112.609375 950.285156 99.839844 L 950.429688 99.121094 C 953.222656 86.472656 954.847656 71.785156 954.847656 56.449219 L 954.847656 55.273438 L 954.847656 55.320312 L 954.847656 54.457031 C 954.855469 39.785156 953.304688 25.25 950.273438 11.640625 L 950.417969 12.40625 C 949.417969 7.960938 948.265625 3.632812 946.960938 -0.550781 L 947.121094 0 L 927.144531 0 C 929.101562 6.382812 930.246094 14.015625 930.246094 22.128906 L 930.230469 23.808594 L 930.230469 23.734375 C 930.773438 34.8125 928.492188 45.730469 924.035156 53.398438 L 924.019531 53.425781 C 919.832031 59.664062 914.523438 63.742188 908.726562 64.585938 L 908.632812 64.585938 L 932.105469 130.847656 L 918.394531 130.847656 L 896.066406 66.3125 L 882.542969 66.3125 L 882.542969 130.847656 L 869.789062 130.847656 L 869.789062 0 L 846.875 0 C 845.8125 3.359375 844.707031 7.441406 843.734375 11.640625 L 843.578125 12.382812 C 840.632812 25.746094 839.136719 40.003906 839.160156 54.382812 L 839.160156 55.320312 L 839.160156 55.273438 L 839.160156 56.425781 C 839.160156 71.761719 840.785156 86.425781 843.734375 99.863281 L 843.578125 99.070312 C 846.527344 112.585938 850.652344 124.152344 855.796875 133.96875 L 855.769531 133.921875 Z M 904.03125 46.894531 C 906.546875 46.632812 908.875 45.601562 911.015625 43.894531 L 910.882812 43.992188 C 912.832031 42.457031 914.488281 39.921875 915.640625 36.695312 L 915.667969 36.625 C 916.8125 33.023438 917.476562 28.726562 917.476562 24.144531 L 917.449219 22.65625 L 917.449219 22.726562 L 917.464844 21.695312 C 917.464844 17.796875 916.898438 13.96875 915.828125 10.585938 L 915.855469 10.703125 C 914.839844 7.839844 913.433594 5.492188 911.773438 3.886719 L 911.71875 3.839844 C 909.925781 2.175781 907.988281 1.085938 905.988281 0.625 L 905.894531 0.601562 C 904.960938 0.351562 904.027344 0.15625 903.089844 0.0234375 L 882.527344 0.0234375 L 882.527344 47.425781 L 895.855469 47.425781 C 898.734375 47.425781 901.457031 47.257812 904.019531 46.921875 Z M 904.03125 46.894531 "/>
</g>
</svg>
